<svg class="svg-back" xmlns="http://www.w3.org/2000/svg" viewBox="0 0 712 174">
  <path d="M225.75,14.5 L225.75,172 L250.5,172 L250.5,14.5 L225.75,14.5 Z M351.5,98.25 L351.5,172 L373.25,172 L373.25,96 C373.25,77 362.75,64.75 342.75,64.75 C328.75,64.75 315,73.25 307.75,82.25 L307.75,84 C315,79.25 322.25,77 330,77 C345,77 351.5,84.25 351.5,98.25 Z M280.25,67.5 L280.25,172 L302,172 L302,64.75 L280.25,67.5 Z M438,174 C411.25,174 393,154.25 393,121 C393,87.25 420.75,66 448.5,64.75 L448.5,66.75 C429.25,68.75 415.25,87.5 415.25,115.75 C415.25,147.75 429.25,163 448.5,163 C456.75,163 463.75,158.75 467.75,155 L467.75,157 C463.75,164.75 454.5,174 438,174 Z M473.75,73.25 C469.5,70.25 466.25,68.5 458.5,66.75 L458.5,64.75 C464.25,65.5 469,66 473.75,66.75 L473.75,3 L495.25,0 L495.25,171.25 L473.75,173.25 L473.75,73.25 Z M566,174 C534,174 514.75,150.75 514.75,117.75 C514.75,87 539.5,67 562.25,65 L562.25,67 C544.25,71.75 536.75,90 536.75,111 C536.75,143 553.5,157.5 575.25,157.5 C589.5,157.5 600.5,152.75 607.75,146 L607.75,148.75 C602.25,159.5 589,174 566,174 Z M546.25,105.75 L586.75,103.25 C586.75,83 580.75,68.75 570.75,67 L570.75,65 C595.75,67 606.75,85.25 606.75,108 L546.25,108 L546.25,105.75 Z M613,172 C624.75,160.25 632.75,152.5 641,142.75 L642.25,144.5 C639.25,152.5 636,162 632.25,172 L613,172 Z M613,66.75 L637,66.75 L709,172 L685,172 L613,66.75 Z M684,93.75 C686.25,85 689.25,78 692.25,66.75 L711.5,66.75 C701,78 695.25,84.75 685.25,95.5 L684,93.75 Z"/>
  <polygon points="182 111 41 101 41 99 182 89"/>
  <polygon points="0 100 79 26 82 26 29 100 82 174 79 174"/>
</svg>
