<svg class="svg-masthead" xmlns="http://www.w3.org/2000/svg" viewBox="0 0 1373 174">
  <path fill-rule="evenodd" d="M0,14.5 L0,172 L24.5,172 L24.5,14.5 L0,14.5 Z M117.5,68.25 L117.5,172 L139,172 L139,65 L117.5,68.25 Z M236.5,98.25 L236.5,172 L258.25,172 L258.25,96 C258.25,77 247.75,64.75 227.75,64.75 C213.75,64.75 200,73.25 192.75,82.25 L192.75,84 C200,79.25 207.25,77 215,77 C230,77 236.5,84.25 236.5,98.25 Z M284,67.5 L284,172 L305.75,172 L305.75,64.75 L284,67.5 Z M426.5,43.75 L427.25,45.75 L472.75,35.75 L467,21.25 C451,30 439.5,36.5 426.5,43.75 Z M447.5,174 C415.5,174 396.25,150.75 396.25,117.75 C396.25,87 421,67 443.75,65 L443.75,67 C425.75,71.75 418.25,90 418.25,111 C418.25,143 435,157.5 456.75,157.5 C471,157.5 482,152.75 489.25,146 L489.25,148.75 C483.75,159.5 470.5,174 447.5,174 Z M561.25,96.25 C561.25,79 553.75,73 536.5,73 C530.25,73 523.5,74 519.25,76 L519.25,74 C524,70 538,64.75 550.75,64.75 C569.75,64.75 583,72.5 583,92.5 L583,172 L561.25,172 L561.25,96.25 Z M641.5,172 L660.75,172 C661.5,159.25 663.5,145.75 664.5,137 L662,136 C656,148 650.25,157.25 641.5,172 Z M789.75,67.5 L789.75,172 L811.5,172 L811.5,64.75 L789.75,67.5 Z M983.25,73.25 C979,70.25 975.75,68.5 968,66.75 L968,64.75 C973.75,65.5 978.5,66 983.25,66.75 L983.25,3 L1004.75,0 L1004.75,171.25 L983.25,173.25 L983.25,73.25 Z M1106.25,106.25 L1104.25,111.5 L1158.75,111.5 L1182.25,172 L1208,172 L1147.5,12.75 L1141.25,12.75 L1131,39.25 L1156.75,106.25 L1106.25,106.25 Z M1246.25,174 C1237.5,173.25 1227.25,172 1219.5,170 L1219.5,153.25 C1228.75,162.25 1237.5,169 1246.25,172 L1246.25,174 Z M1283.75,83.25 C1276.5,75.5 1269,70.5 1259.25,66.75 L1259.25,64.75 C1269,65.25 1277.25,66.5 1283.75,68.5 L1283.75,83.25 Z M1341.5,174 C1357.5,174 1368.75,166.75 1372.5,161.5 L1372.5,159 C1369.25,161 1361.25,163 1353.5,163 C1338.75,163 1335.75,152.5 1335.75,139.5 L1335.75,74 L1368.75,74 L1368.75,66.75 L1335.75,66.75 L1335.75,31.75 L1314.25,39 L1314.25,66.75 L1298,66.75 L1298,74 L1314.25,74 L1314.25,142.25 C1314.25,163 1322.5,174 1341.5,174 Z"/>
</svg>
