<svg class="svg-masthead" xmlns="http://www.w3.org/2000/svg" viewBox="0 0 1373 174">
  <path fill-rule="evenodd" d="M39.75,169.75 L39.75,172 L100,172 L100,152.25 C76.75,159.5 65.5,164.5 39.75,169.75 Z M128.25,46.25 C135,46.25 140.5,41.5 140.5,34.25 C140.5,27 135,22.25 128.25,22.25 C121.5,22.25 116,27 116,34.25 C116,41.5 121.5,46.25 128.25,46.25 Z M165.25,67.5 L165.25,172 L187,172 L187,64.75 L165.25,67.5 Z M355.25,98.25 L355.25,172 L377,172 L377,96 C377,77 366.5,64.75 346.5,64.75 C332.5,64.75 318.75,73.25 311.5,82.25 L311.5,84 C318.75,79.25 326,77 333.75,77 C348.75,77 355.25,84.25 355.25,98.25 Z M427.75,105.75 L468.25,103.25 C468.25,83 462.25,68.75 452.25,67 L452.25,65 C477.25,67 488.25,85.25 488.25,108 L427.75,108 L427.75,105.75 Z M528,174 C508.75,174 500.75,161 500.75,148.5 C500.75,133 511.25,127.75 520,123.75 C525.5,121.75 542,117.5 555,114.25 L555,116.5 C546,119.25 535.75,122.5 530,126.25 C526.25,129 521.75,133.75 521.75,145 C521.75,155.75 525.5,164.25 537.5,164.25 C546.5,164.25 551.75,160 555.5,157.25 L555.5,159 C551.5,165 542.5,174 528,174 Z M516.75,100.5 C511,100.5 507.25,96.25 507.25,91 C507.25,85.75 511,81.5 516.75,81.5 C522.5,81.5 526,85.75 526,91 C526,96.25 522.5,100.5 516.75,100.5 Z M672.75,106.25 L670.75,111.5 L725.25,111.5 L748.75,172 L774.5,172 L714,12.75 L707.75,12.75 L697.5,39.25 L723.25,106.25 L672.75,106.25 Z M861,98.25 L861,172 L882.75,172 L882.75,96 C882.75,77 872.25,64.75 852.25,64.75 C838.25,64.75 824.5,73.25 817.25,82.25 L817.25,84 C824.5,79.25 831.75,77 839.5,77 C854.5,77 861,84.25 861,98.25 Z M947.5,174 C920.75,174 902.5,154.25 902.5,121 C902.5,87.25 930.25,66 958,64.75 L958,66.75 C938.75,68.75 924.75,87.5 924.75,115.75 C924.75,147.75 938.75,163 958,163 C966.25,163 973.25,158.75 977.25,155 L977.25,157 C973.25,164.75 964,174 947.5,174 Z M1028.5,105 L1028.5,117 L1067,117 L1067,105 L1028.5,105 Z M1075,172 L1094.25,172 C1095,159.25 1097,145.75 1098,137 L1095.5,136 C1089.5,148 1083.75,157.25 1075,172 Z M1254.5,172 C1264,170.75 1275.25,163.75 1275.25,150.5 C1275.25,139.75 1268.25,135.5 1258.25,130.75 L1242,123.25 C1230.75,118.75 1219.5,110.25 1219.5,95 C1219.5,79 1233.5,66.75 1252.25,64.75 L1252.25,66.75 C1243.5,68.5 1235.5,73.5 1235.5,83.25 C1235.5,92.5 1240.25,97.5 1249.25,101.5 L1268.75,110.25 C1283.75,117 1291,125.75 1291,139.75 C1291,159.75 1274.5,172.75 1254.5,174 L1254.5,172 Z"/>
</svg>
