<svg class="svg-logo" xmlns="http://www.w3.org/2000/svg" viewBox="0 0 583 174">
  <path d="M0,14.5 L0,172 L24.5,172 L24.5,14.5 L0,14.5 Z M39.75,169.75 L39.75,172 L100,172 L100,152.25 C76.75,159.5 65.5,164.5 39.75,169.75 Z M117.5,68.25 L117.5,172 L139,172 L139,65 L117.5,68.25 Z M128.25,46.25 C135,46.25 140.5,41.5 140.5,34.25 C140.5,27 135,22.25 128.25,22.25 C121.5,22.25 116,27 116,34.25 C116,41.5 121.5,46.25 128.25,46.25 Z M236.5,98.25 L236.5,172 L258.25,172 L258.25,96 C258.25,77 247.75,64.75 227.75,64.75 C213.75,64.75 200,73.25 192.75,82.25 L192.75,84 C200,79.25 207.25,77 215,77 C230,77 236.5,84.25 236.5,98.25 Z M165.25,67.5 L165.25,172 L187,172 L187,64.75 L165.25,67.5 Z M355.25,98.25 L355.25,172 L377,172 L377,96 C377,77 366.5,64.75 346.5,64.75 C332.5,64.75 318.75,73.25 311.5,82.25 L311.5,84 C318.75,79.25 326,77 333.75,77 C348.75,77 355.25,84.25 355.25,98.25 Z M284,67.5 L284,172 L305.75,172 L305.75,64.75 L284,67.5 Z M426.5,43.75 L427.25,45.75 L472.75,35.75 L467,21.25 C451,30 439.5,36.5 426.5,43.75 Z M447.5,174 C415.5,174 396.25,150.75 396.25,117.75 C396.25,87 421,67 443.75,65 L443.75,67 C425.75,71.75 418.25,90 418.25,111 C418.25,143 435,157.5 456.75,157.5 C471,157.5 482,152.75 489.25,146 L489.25,148.75 C483.75,159.5 470.5,174 447.5,174 Z M427.75,105.75 L468.25,103.25 C468.25,83 462.25,68.75 452.25,67 L452.25,65 C477.25,67 488.25,85.25 488.25,108 L427.75,108 L427.75,105.75 Z M528,174 C508.75,174 500.75,161 500.75,148.5 C500.75,133 511.25,127.75 520,123.75 C525.5,121.75 542,117.5 555,114.25 L555,116.5 C546,119.25 535.75,122.5 530,126.25 C526.25,129 521.75,133.75 521.75,145 C521.75,155.75 525.5,164.25 537.5,164.25 C546.5,164.25 551.75,160 555.5,157.25 L555.5,159 C551.5,165 542.5,174 528,174 Z M561.25,96.25 C561.25,79 553.75,73 536.5,73 C530.25,73 523.5,74 519.25,76 L519.25,74 C524,70 538,64.75 550.75,64.75 C569.75,64.75 583,72.5 583,92.5 L583,172 L561.25,172 L561.25,96.25 Z M516.75,100.5 C511,100.5 507.25,96.25 507.25,91 C507.25,85.75 511,81.5 516.75,81.5 C522.5,81.5 526,85.75 526,91 C526,96.25 522.5,100.5 516.75,100.5 Z"/>
</svg>
