<svg class="svg-logo" xmlns="http://www.w3.org/2000/svg" viewBox="0 0 298 174">
  <path d="M31.25,105.5 L29.25,110.75 L83.75,110.75 L107.25,171.25 L133,171.25 L72.5,12 L66.25,12 L56,38.5 L81.75,105.5 L31.25,105.5 Z M0,171.25 L19.25,171.25 C20,158.5 22,145 23,136.25 L20.5,135.25 C14.5,147.25 8.75,156.5 0,171.25 Z M179.5,171.25 C189,170 200.25,163 200.25,149.75 C200.25,139 193.25,134.75 183.25,130 L167,122.5 C155.75,118 144.5,109.5 144.5,94.25 C144.5,78.25 158.5,66 177.25,64 L177.25,66 C168.5,67.75 160.5,72.75 160.5,82.5 C160.5,91.75 165.25,96.75 174.25,100.75 L193.75,109.5 C208.75,116.25 216,125 216,139 C216,159 199.5,172 179.5,173.25 L179.5,171.25 Z M171.25,173.25 C162.5,172.5 152.25,171.25 144.5,169.25 L144.5,152.5 C153.75,161.5 162.5,168.25 171.25,171.25 L171.25,173.25 Z M208.75,82.5 C201.5,74.75 194,69.75 184.25,66 L184.25,64 C194,64.5 202.25,65.75 208.75,67.75 L208.75,82.5 Z M266.5,173.25 C282.5,173.25 293.75,166 297.5,160.75 L297.5,158.25 C294.25,160.25 286.25,162.25 278.5,162.25 C263.75,162.25 260.75,151.75 260.75,138.75 L260.75,73.25 L293.75,73.25 L293.75,66 L260.75,66 L260.75,31 L239.25,38.25 L239.25,66 L223,66 L223,73.25 L239.25,73.25 L239.25,141.5 C239.25,162.25 247.5,173.25 266.5,173.25 Z"/>
</svg>
