<svg class="svg-masthead" xmlns="http://www.w3.org/2000/svg" viewBox="0 0 1373 174">
  <path fill-rule="evenodd" d="M0,14.5 L0,172 L24.5,172 L24.5,14.5 L0,14.5 Z M39.75,169.75 L39.75,172 L100,172 L100,152.25 C76.75,159.5 65.5,164.5 39.75,169.75 Z M117.5,68.25 L117.5,172 L139,172 L139,65 L117.5,68.25 Z M128.25,46.25 C135,46.25 140.5,41.5 140.5,34.25 C140.5,27 135,22.25 128.25,22.25 C121.5,22.25 116,27 116,34.25 C116,41.5 121.5,46.25 128.25,46.25 Z M236.5,98.25 L236.5,172 L258.25,172 L258.25,96 C258.25,77 247.75,64.75 227.75,64.75 C213.75,64.75 200,73.25 192.75,82.25 L192.75,84 C200,79.25 207.25,77 215,77 C230,77 236.5,84.25 236.5,98.25 Z M165.25,67.5 L165.25,172 L187,172 L187,64.75 L165.25,67.5 Z M355.25,98.25 L355.25,172 L377,172 L377,96 C377,77 366.5,64.75 346.5,64.75 C332.5,64.75 318.75,73.25 311.5,82.25 L311.5,84 C318.75,79.25 326,77 333.75,77 C348.75,77 355.25,84.25 355.25,98.25 Z M284,67.5 L284,172 L305.75,172 L305.75,64.75 L284,67.5 Z M426.5,43.75 L427.25,45.75 L472.75,35.75 L467,21.25 C451,30 439.5,36.5 426.5,43.75 Z M447.5,174 C415.5,174 396.25,150.75 396.25,117.75 C396.25,87 421,67 443.75,65 L443.75,67 C425.75,71.75 418.25,90 418.25,111 C418.25,143 435,157.5 456.75,157.5 C471,157.5 482,152.75 489.25,146 L489.25,148.75 C483.75,159.5 470.5,174 447.5,174 Z M427.75,105.75 L468.25,103.25 C468.25,83 462.25,68.75 452.25,67 L452.25,65 C477.25,67 488.25,85.25 488.25,108 L427.75,108 L427.75,105.75 Z M528,174 C508.75,174 500.75,161 500.75,148.5 C500.75,133 511.25,127.75 520,123.75 C525.5,121.75 542,117.5 555,114.25 L555,116.5 C546,119.25 535.75,122.5 530,126.25 C526.25,129 521.75,133.75 521.75,145 C521.75,155.75 525.5,164.25 537.5,164.25 C546.5,164.25 551.75,160 555.5,157.25 L555.5,159 C551.5,165 542.5,174 528,174 Z M561.25,96.25 C561.25,79 553.75,73 536.5,73 C530.25,73 523.5,74 519.25,76 L519.25,74 C524,70 538,64.75 550.75,64.75 C569.75,64.75 583,72.5 583,92.5 L583,172 L561.25,172 L561.25,96.25 Z M516.75,100.5 C511,100.5 507.25,96.25 507.25,91 C507.25,85.75 511,81.5 516.75,81.5 C522.5,81.5 526,85.75 526,91 C526,96.25 522.5,100.5 516.75,100.5 Z M672.75,106.25 L670.75,111.5 L725.25,111.5 L748.75,172 L774.5,172 L714,12.75 L707.75,12.75 L697.5,39.25 L723.25,106.25 L672.75,106.25 Z M641.5,172 L660.75,172 C661.5,159.25 663.5,145.75 664.5,137 L662,136 C656,148 650.25,157.25 641.5,172 Z M861,98.25 L861,172 L882.75,172 L882.75,96 C882.75,77 872.25,64.75 852.25,64.75 C838.25,64.75 824.5,73.25 817.25,82.25 L817.25,84 C824.5,79.25 831.75,77 839.5,77 C854.5,77 861,84.25 861,98.25 Z M789.75,67.5 L789.75,172 L811.5,172 L811.5,64.75 L789.75,67.5 Z M947.5,174 C920.75,174 902.5,154.25 902.5,121 C902.5,87.25 930.25,66 958,64.75 L958,66.75 C938.75,68.75 924.75,87.5 924.75,115.75 C924.75,147.75 938.75,163 958,163 C966.25,163 973.25,158.75 977.25,155 L977.25,157 C973.25,164.75 964,174 947.5,174 Z M983.25,73.25 C979,70.25 975.75,68.5 968,66.75 L968,64.75 C973.75,65.5 978.5,66 983.25,66.75 L983.25,3 L1004.75,0 L1004.75,171.25 L983.25,173.25 L983.25,73.25 Z M1028.5,105 L1028.5,117 L1067,117 L1067,105 L1028.5,105 Z M1106.25,106.25 L1104.25,111.5 L1158.75,111.5 L1182.25,172 L1208,172 L1147.5,12.75 L1141.25,12.75 L1131,39.25 L1156.75,106.25 L1106.25,106.25 Z M1075,172 L1094.25,172 C1095,159.25 1097,145.75 1098,137 L1095.5,136 C1089.5,148 1083.75,157.25 1075,172 Z M1254.5,172 C1264,170.75 1275.25,163.75 1275.25,150.5 C1275.25,139.75 1268.25,135.5 1258.25,130.75 L1242,123.25 C1230.75,118.75 1219.5,110.25 1219.5,95 C1219.5,79 1233.5,66.75 1252.25,64.75 L1252.25,66.75 C1243.5,68.5 1235.5,73.5 1235.5,83.25 C1235.5,92.5 1240.25,97.5 1249.25,101.5 L1268.75,110.25 C1283.75,117 1291,125.75 1291,139.75 C1291,159.75 1274.5,172.75 1254.5,174 L1254.5,172 Z M1246.25,174 C1237.5,173.25 1227.25,172 1219.5,170 L1219.5,153.25 C1228.75,162.25 1237.5,169 1246.25,172 L1246.25,174 Z M1283.75,83.25 C1276.5,75.5 1269,70.5 1259.25,66.75 L1259.25,64.75 C1269,65.25 1277.25,66.5 1283.75,68.5 L1283.75,83.25 Z M1341.5,174 C1357.5,174 1368.75,166.75 1372.5,161.5 L1372.5,159 C1369.25,161 1361.25,163 1353.5,163 C1338.75,163 1335.75,152.5 1335.75,139.5 L1335.75,74 L1368.75,74 L1368.75,66.75 L1335.75,66.75 L1335.75,31.75 L1314.25,39 L1314.25,66.75 L1298,66.75 L1298,74 L1314.25,74 L1314.25,142.25 C1314.25,163 1322.5,174 1341.5,174 Z"/>
</svg>
