<svg class="svg-index" xmlns="http://www.w3.org/2000/svg" viewBox="0 0 487 174">
  <path d="M0.75,14.5 L0.75,172 L25.5,172 L25.5,14.5 L0.75,14.5 Z M126.5,98.25 L126.5,172 L148.25,172 L148.25,96 C148.25,77 137.75,64.75 117.75,64.75 C103.75,64.75 90,73.25 82.75,82.25 L82.75,84 C90,79.25 97.25,77 105,77 C120,77 126.5,84.25 126.5,98.25 Z M55.25,67.5 L55.25,172 L77,172 L77,64.75 L55.25,67.5 Z M213,174 C186.25,174 168,154.25 168,121 C168,87.25 195.75,66 223.5,64.75 L223.5,66.75 C204.25,68.75 190.25,87.5 190.25,115.75 C190.25,147.75 204.25,163 223.5,163 C231.75,163 238.75,158.75 242.75,155 L242.75,157 C238.75,164.75 229.5,174 213,174 Z M248.75,73.25 C244.5,70.25 241.25,68.5 233.5,66.75 L233.5,64.75 C239.25,65.5 244,66 248.75,66.75 L248.75,3 L270.25,0 L270.25,171.25 L248.75,173.25 L248.75,73.25 Z M341,174 C309,174 289.75,150.75 289.75,117.75 C289.75,87 314.5,67 337.25,65 L337.25,67 C319.25,71.75 311.75,90 311.75,111 C311.75,143 328.5,157.5 350.25,157.5 C364.5,157.5 375.5,152.75 382.75,146 L382.75,148.75 C377.25,159.5 364,174 341,174 Z M321.25,105.75 L361.75,103.25 C361.75,83 355.75,68.75 345.75,67 L345.75,65 C370.75,67 381.75,85.25 381.75,108 L321.25,108 L321.25,105.75 Z M388,172 C399.75,160.25 407.75,152.5 416,142.75 L417.25,144.5 C414.25,152.5 411,162 407.25,172 L388,172 Z M388,66.75 L412,66.75 L484,172 L460,172 L388,66.75 Z M459,93.75 C461.25,85 464.25,78 467.25,66.75 L486.5,66.75 C476,78 470.25,84.75 460.25,95.5 L459,93.75 Z"/>
</svg>
