<svg class="svg-about" xmlns="http://www.w3.org/2000/svg" viewBox="0 0 581 174">
  <path d="M31.25,106.25 L29.25,111.5 L83.75,111.5 L107.25,172 L133,172 L72.5,12.75 L66.25,12.75 L56,39.25 L81.75,106.25 L31.25,106.25 Z M0,172 L19.25,172 C20,159.25 22,145.75 23,137 L20.5,136 C14.5,148 8.75,157.25 0,172 Z M196.5,172 C217.25,170.75 232.25,152.5 232.25,120.25 C232.25,90.25 223.25,75.25 202.25,75.25 C192.25,75.25 182.75,78.5 176,83.5 L176,81.5 C182.75,73.5 197.25,64.75 211.75,64.75 C240.75,64.75 255,84 255,116.25 C255,151 232,172 196.5,174 L196.5,172 Z M189.25,174 C174,173.25 157.25,170.5 148.25,167.5 L148.25,3 L170,0 L170,164.75 C174.75,168.5 183.5,171.25 189.25,172 L189.25,174 Z M319,174 L319,172 C314.25,171 310.25,169.25 307,166.5 C295,157.25 291.25,140.5 291.25,119.5 C291.25,98.5 295,81.5 307,72.25 C310.25,70 314.25,68 319,66.75 L319,64.75 C289.75,67.5 268.5,90.75 268.5,119.5 C268.5,148 289.75,171.25 319,174 Z M329,172 L329,174 C358.25,171.25 379.5,148 379.5,119.5 C379.5,90.75 358.25,67.5 329,64.75 L329,66.75 C333.75,68 337.75,70 341,72.25 C353.25,81.5 357,98.5 357,119.5 C357,140.5 353.25,157.25 341,166.5 C337.75,169.25 333.75,171 329,172 Z M430,173.75 C443.75,173.75 457.75,165.25 464.25,156 L464.25,154.25 C456.5,159 449.75,161.5 441.75,161.5 C426.75,161.5 420.25,154.25 420.25,140.25 L420.25,64.25 L398.75,67.5 L398.75,142 C398.75,161 409,173.75 430,173.75 Z M470,67.5 L470,173.25 L491.5,170.5 L491.5,64.25 L470,67.5 Z M549.5,174 C565.5,174 576.75,166.75 580.5,161.5 L580.5,159 C577.25,161 569.25,163 561.5,163 C546.75,163 543.75,152.5 543.75,139.5 L543.75,74 L576.75,74 L576.75,66.75 L543.75,66.75 L543.75,31.75 L522.25,39 L522.25,66.75 L506,66.75 L506,74 L522.25,74 L522.25,142.25 C522.25,163 530.5,174 549.5,174 Z"/>
</svg>
